<?xml version="1.0" standalone="no"?>
<!DOCTYPE svg PUBLIC "-//W3C//DTD SVG 20010904//EN"
 "http://www.w3.org/TR/2001/REC-SVG-20010904/DTD/svg10.dtd">
<svg version="1.0" xmlns="http://www.w3.org/2000/svg"
 width="840.000000pt" height="859.000000pt" viewBox="0 0 840.000000 859.000000"
 preserveAspectRatio="xMidYMid meet">

<g transform="translate(0.000000,859.000000) scale(0.100000,-0.100000)"
fill="#000000" stroke="none">
<path d="M0 4295 l0 -4295 4200 0 4200 0 0 4295 0 4295 -4200 0 -4200 0 0
-4295z m6881 3917 c9 -473 14 -1890 14 -4587 l0 -2370 -22 -83 c-30 -112 -81
-214 -153 -311 -78 -103 -207 -221 -242 -221 -5 0 -17 9 -28 20 -20 20 -20 33
-20 709 l0 689 -87 57 c-174 113 -488 250 -744 324 -372 108 -778 168 -1196
178 -226 5 -243 7 -243 24 0 19 75 526 135 914 131 850 252 1382 318 1408 41
16 76 -79 200 -549 99 -374 126 -460 159 -507 16 -23 23 -26 35 -16 61 51 147
420 264 1129 174 1064 205 1232 269 1478 49 188 82 241 120 194 37 -45 98
-266 230 -832 104 -443 158 -637 203 -730 56 -114 81 -89 142 142 78 298 187
895 406 2223 100 605 168 969 193 1029 34 81 41 37 47 -312z m-5287 -1019 c18
-57 50 -215 106 -529 39 -219 71 -410 195 -1169 31 -187 64 -387 75 -445 10
-58 49 -278 85 -490 209 -1219 354 -1876 432 -1962 15 -17 18 -17 34 -2 43 39
124 309 208 692 51 233 80 368 152 717 22 110 79 378 126 595 200 937 250
1051 339 788 81 -237 203 -797 395 -1803 130 -684 280 -1446 350 -1775 122
-574 224 -900 280 -900 32 0 116 192 259 590 139 385 192 502 242 534 74 46
233 -379 528 -1417 125 -441 128 -416 -50 -456 -371 -85 -750 -124 -1179 -122
-338 1 -537 18 -850 72 -400 69 -842 210 -1110 356 -359 195 -607 461 -676
724 -16 60 -17 236 -10 2644 7 2598 13 3369 28 3393 15 22 25 13 41 -35z"/>
</g>
</svg>
